HIERARCHY
ROOT joint_Root
{
	OFFSET 0.0 0.0 0.0
	CHANNELS 6 Xposition Yposition Zposition Zrotation Xrotation Yrotation 
	JOINT Hips
	{
		OFFSET 4.5925 91.4895 -427.239
		CHANNELS 6 Xposition Yposition Zposition Zrotation Xrotation Yrotation 
		JOINT Spine
		{
			OFFSET 15.7357 0.0 0.0
			CHANNELS 6 Xposition Yposition Zposition Zrotation Xrotation Yrotation 
			JOINT Chest
			{
				OFFSET 8.98455 -0.406207 0.0
				CHANNELS 6 Xposition Yposition Zposition Zrotation Xrotation Yrotation 
				JOINT Neck
				{
					OFFSET 16.3773 0.0 0.0
					CHANNELS 6 Xposition Yposition Zposition Zrotation Xrotation Yrotation 
					JOINT Head
					{
						OFFSET 6.45672 0.0 0.0
						CHANNELS 6 Xposition Yposition Zposition Zrotation Xrotation Yrotation 
						End Site
						{
							OFFSET 0.0 0.0 0.0
						}
					}
				}
				JOINT Shoulder_L
				{
					OFFSET 12.9942 -0.242716 4.98039
					CHANNELS 6 Xposition Yposition Zposition Zrotation Xrotation Yrotation 
					JOINT UpperArm_L
					{
						OFFSET 5.34809 0.0 0.0
						CHANNELS 6 Xposition Yposition Zposition Zrotation Xrotation Yrotation 
						JOINT LowerArm_L
						{
							OFFSET 24.3286 1.87007e-05 0.0
							CHANNELS 6 Xposition Yposition Zposition Zrotation Xrotation Yrotation 
							JOINT Hand_L
							{
								OFFSET 22.2916 0.0 0.0
								CHANNELS 6 Xposition Yposition Zposition Zrotation Xrotation Yrotation 
								End Site
								{
									OFFSET 0.0 0.0 0.0
								}
							}
						}
					}
				}
				JOINT Shoulder_R
				{
					OFFSET 12.9945 -0.242716 -4.98039
					CHANNELS 6 Xposition Yposition Zposition Zrotation Xrotation Yrotation 
					JOINT UpperArm_R
					{
						OFFSET -5.34813 0.0 0.0
						CHANNELS 6 Xposition Yposition Zposition Zrotation Xrotation Yrotation 
						JOINT LowerArm_R
						{
							OFFSET -24.3289 0.000322201 0.0
							CHANNELS 6 Xposition Yposition Zposition Zrotation Xrotation Yrotation 
							JOINT Hand_R
							{
								OFFSET -22.2915 -0.000108084 0.0
								CHANNELS 6 Xposition Yposition Zposition Zrotation Xrotation Yrotation 
								End Site
								{
									OFFSET 0.0 0.0 0.0
								}
							}
						}
					}
				}
			}
		}
		JOINT UpperLeg_L
		{
			OFFSET -2.19248 -6.46944 0.0
			CHANNELS 6 Xposition Yposition Zposition Zrotation Xrotation Yrotation 
			JOINT LowerLeg_L
			{
				OFFSET 39.0811 0.0 -1.23785e-05
				CHANNELS 6 Xposition Yposition Zposition Zrotation Xrotation Yrotation 
				JOINT Foot_L
				{
					OFFSET 40.9854 0.0 -1.26872e-05
					CHANNELS 6 Xposition Yposition Zposition Zrotation Xrotation Yrotation 
					JOINT Toes_L
					{
						OFFSET 11.7543 0.0 0.0
						CHANNELS 6 Xposition Yposition Zposition Zrotation Xrotation Yrotation 
						End Site
						{
							OFFSET 0.0 0.0 0.0
						}
					}
				}
			}
		}
		JOINT UpperLeg_R
		{
			OFFSET -2.19251 6.46944 0.0
			CHANNELS 6 Xposition Yposition Zposition Zrotation Xrotation Yrotation 
			JOINT LowerLeg_R
			{
				OFFSET -39.0811 -0.00228153 -0.0401928
				CHANNELS 6 Xposition Yposition Zposition Zrotation Xrotation Yrotation 
				JOINT Foot_R
				{
					OFFSET -40.9854 0.0 0.0
					CHANNELS 6 Xposition Yposition Zposition Zrotation Xrotation Yrotation 
					JOINT Toes_R
					{
						OFFSET -11.7543 0.0 0.0
						CHANNELS 6 Xposition Yposition Zposition Zrotation Xrotation Yrotation 
						End Site
						{
							OFFSET 0.0 0.0 0.0
						}
					}
				}
			}
		}
	}
}
MOTION
Frames:	8
Frame Time:	0.0333333
0.000000 0.000000 0.000000 0.000000 0.000000 -0.000000 -1.544930 82.616500 0.288601 89.332900 -0.266458 10.385400 15.735700 0.000005 -0.000001 91.772200 80.461000 -92.015600 8.984550 -0.406207 -0.000000 11.304600 0.577895 -0.543691 16.377300 -0.000001 -0.000001 -3.776620 -7.067380 1.460510 6.456720 -0.000001 -0.000000 -11.718500 -11.276000 3.315690 12.994200 -0.242716 4.980390 -91.934700 5.514500 -70.632100 5.348090 -0.000007 -0.000001 -67.343700 4.806870 -5.735490 24.328600 0.000019 0.000005 0.448528 1.615780 -15.516300 22.291600 -0.000001 0.000005 24.461800 4.850980 10.343600 12.994500 -0.242716 -4.980390 88.248200 10.053000 -80.062300 -5.348130 -0.000001 -0.000004 -62.304400 22.852100 -4.360590 -24.328900 0.000322 -0.000009 -3.366130 -5.619860 -30.980800 -22.291500 -0.000108 -0.000004 17.760000 5.424720 -3.761490 -2.192480 -6.469440 -0.000000 -174.400000 -8.704310 -14.932900 39.081100 -0.000007 -0.000012 -0.429890 0.239708 60.856900 40.985400 -0.000006 -0.000013 1.428990 5.694340 -85.572600 11.754300 -0.000000 0.000003 -0.000266 -0.002356 -16.665700 -2.192510 6.469440 -0.000001 177.037000 15.112500 165.940000 -39.081100 -0.002282 -0.040193 0.098537 -0.052196 61.301600 -40.985400 0.000008 0.000006 5.696690 1.423460 -85.402300 -11.754300 -0.000006 -0.000006 -1.430620 -1.787680 -17.092400
0.000000 0.000000 0.000000 0.000000 0.000000 -0.000000 -0.327013 84.146500 1.217980 90.514900 -3.946320 10.042300 15.735700 0.000005 -0.000001 92.911000 81.405400 -92.152800 8.984550 -0.406207 -0.000000 9.396310 0.878777 1.442910 16.377300 -0.000001 -0.000001 -2.469210 -6.160670 1.530060 6.456720 -0.000001 -0.000000 -11.303300 -9.616700 0.908045 12.994200 -0.242716 4.980390 -91.634100 4.358310 -69.422100 5.348090 -0.000007 -0.000001 -60.985700 -5.795830 -4.846030 24.328600 0.000019 0.000005 0.842361 3.030970 -15.538500 22.291600 -0.000001 0.000005 24.640100 4.795120 11.409500 12.994500 -0.242716 -4.980390 88.165400 9.483540 -78.998000 -5.348130 -0.000001 -0.000004 -62.700600 18.916500 -3.695330 -24.328900 0.000322 -0.000009 -3.780350 -6.733220 -29.398600 -22.291500 -0.000108 -0.000004 19.200200 5.417490 -3.512670 -2.192480 -6.469440 -0.000000 -176.276000 -11.076700 -11.501300 39.081100 -0.000007 -0.000012 -0.396416 0.270522 55.690500 40.985400 -0.000006 -0.000013 1.301060 3.918200 -84.106600 11.754300 -0.000000 0.000003 -0.000276 -0.002425 -16.668200 -2.192510 6.469440 -0.000001 175.228000 12.315900 167.709000 -39.081100 -0.002282 -0.040193 0.071856 -0.044259 57.185900 -40.985400 0.000008 0.000006 5.297700 3.235040 -83.481000 -11.754300 -0.000006 -0.000006 -1.309620 -1.625260 -17.243200
0.000000 0.000000 0.000000 0.000000 0.000000 -0.000000 0.767344 85.997000 2.147260 91.634600 -6.759730 9.706360 15.735700 0.000005 -0.000001 95.842000 82.423300 -93.962000 8.984550 -0.406207 -0.000000 7.288270 1.528930 3.658800 16.377300 -0.000001 -0.000001 -0.350027 -5.674790 1.255640 6.456720 -0.000001 -0.000000 -10.650700 -8.138310 -1.940710 12.994200 -0.242716 4.980390 -91.052000 2.709170 -68.767900 5.348090 -0.000007 -0.000001 -53.168700 -20.103900 -8.117060 24.328600 0.000019 0.000005 -0.589086 -1.982430 -16.512200 22.291600 -0.000001 0.000005 25.013500 4.775140 11.783500 12.994500 -0.242716 -4.980390 88.182300 8.474790 -77.846400 -5.348130 -0.000001 -0.000004 -62.938000 14.859000 -1.526790 -24.328900 0.000322 -0.000009 -5.102100 -9.209280 -29.152400 -22.291500 -0.000108 -0.000004 19.296300 5.428550 -3.890150 -2.192480 -6.469440 -0.000000 -178.146000 -12.790800 -7.645270 39.081100 -0.000007 -0.000012 -0.326873 0.285409 48.874900 40.985400 -0.000006 -0.000013 1.304010 2.554550 -81.668300 11.754300 -0.000000 0.000003 -0.000245 -0.002197 -16.659900 -2.192510 6.469440 -0.000001 173.232000 11.139100 170.123000 -39.081100 -0.002282 -0.040193 0.050959 -0.037726 51.669700 -40.985400 0.000008 0.000006 5.188810 5.612830 -80.859200 -11.754300 -0.000006 -0.000006 -1.163570 -1.430390 -17.528400
0.000000 0.000000 0.000000 0.000000 0.000000 -0.000000 1.509250 87.580200 2.724850 92.179100 -8.334180 8.630620 15.735700 0.000005 -0.000001 98.636700 83.617900 -95.754800 8.984550 -0.406207 -0.000000 4.815630 1.839070 5.680190 16.377300 -0.000001 -0.000001 1.849150 -5.320920 1.518020 6.456720 -0.000001 -0.000000 -9.707260 -7.038640 -4.122970 12.994200 -0.242716 4.980390 -90.359800 0.922825 -68.703800 5.348090 -0.000007 -0.000001 -44.615700 -31.700600 -14.742000 24.328600 0.000019 0.000005 -1.880650 -5.208710 -19.885400 22.291600 -0.000001 0.000005 23.098600 4.874890 9.855200 12.994500 -0.242716 -4.980390 88.176600 7.811790 -76.817600 -5.348130 -0.000001 -0.000004 -61.979200 12.607800 0.543874 -24.328900 0.000322 -0.000009 -5.709030 -10.583200 -28.555900 -22.291500 -0.000108 -0.000004 17.744700 5.428110 -3.870140 -2.192480 -6.469440 -0.000000 -179.314000 -14.069300 -5.215990 39.081100 -0.000007 -0.000012 -0.225484 0.245789 42.533400 40.985400 -0.000006 -0.000013 1.526220 2.260320 -79.034200 11.754300 -0.000000 0.000003 -0.000129 -0.001275 -16.626200 -2.192510 6.469440 -0.000001 172.172000 11.214100 171.634000 -39.081100 -0.002282 -0.040193 0.038390 -0.033546 46.321700 -40.985400 0.000008 0.000006 5.137020 7.514760 -78.282200 -11.754300 -0.000006 -0.000006 -0.958858 -1.170440 -17.761600
0.000000 0.000000 0.000000 0.000000 0.000000 -0.000000 1.765330 88.613400 3.103450 92.135900 -8.730230 7.824730 15.735700 0.000005 -0.000001 98.358600 84.514900 -94.828100 8.984550 -0.406207 -0.000000 3.053770 1.448180 7.015080 16.377300 -0.000001 -0.000001 3.271370 -5.112100 2.094230 6.456720 -0.000001 -0.000000 -9.150450 -6.402580 -4.668610 12.994200 -0.242716 4.980390 -89.458200 -1.444440 -69.423600 5.348090 -0.000007 -0.000001 -33.426800 -38.344300 -20.831700 24.328600 0.000019 0.000005 -3.158900 -6.468050 -26.071900 22.291600 -0.000001 0.000005 20.350900 5.055670 6.087170 12.994500 -0.242716 -4.980390 87.989600 8.036660 -75.906200 -5.348130 -0.000001 -0.000004 -59.880200 12.448500 1.403960 -24.328900 0.000322 -0.000009 -4.889810 -9.851990 -26.558200 -22.291500 -0.000108 -0.000004 16.389900 5.412500 -3.346470 -2.192480 -6.469440 -0.000000 -179.363000 -15.248600 -3.519000 39.081100 -0.000007 -0.000012 -0.047900 0.060954 38.162900 40.985400 -0.000006 -0.000013 2.683040 3.280250 -77.262900 11.754300 -0.000000 0.000003 -0.447798 -0.565804 -16.235500 -2.192510 6.469440 -0.000001 172.058000 11.725400 173.061000 -39.081100 -0.002282 -0.040193 0.032342 -0.032065 42.194400 -40.985400 0.000008 0.000006 5.097320 8.354700 -76.564600 -11.754300 -0.000006 -0.000006 -0.728826 -0.889531 -17.812000
0.000000 0.000000 0.000000 0.000000 0.000000 -0.000000 1.819920 89.097000 3.137510 91.686600 -8.193890 7.068900 15.735700 0.000005 -0.000001 93.914800 85.047100 -90.070200 8.984550 -0.406207 -0.000000 2.112000 0.486507 7.672780 16.377300 -0.000001 -0.000001 3.282410 -5.178570 2.009100 6.456720 -0.000001 -0.000000 -9.010960 -6.609070 -3.692350 12.994200 -0.242716 4.980390 -88.098400 -5.282540 -70.168000 5.348090 -0.000007 -0.000001 -21.124400 -44.362600 -23.913600 24.328600 0.000019 0.000005 -5.268070 -7.301990 -35.978600 22.291600 -0.000001 0.000005 21.927400 5.235080 1.853050 12.994500 -0.242716 -4.980390 87.774600 8.540720 -75.336800 -5.348130 -0.000001 -0.000004 -57.891500 12.387800 1.178870 -24.328900 0.000322 -0.000009 -3.251110 -7.380330 -23.842500 -22.291500 -0.000108 -0.000004 16.169800 5.389550 -2.602250 -2.192480 -6.469440 -0.000000 -178.892000 -15.495300 -3.381650 39.081100 -0.000007 -0.000012 0.004364 -0.005906 36.454200 40.985400 -0.000006 -0.000013 3.040290 4.631460 -76.180900 11.754300 -0.000000 0.000003 -0.450247 -0.568287 -16.458500 -2.192510 6.469440 -0.000001 172.523000 12.489300 173.747000 -39.081100 -0.002282 -0.040193 0.030960 -0.033254 39.773900 -40.985400 0.000008 0.000006 5.063940 8.499640 -75.803500 -11.754300 -0.000006 -0.000006 -0.534563 -0.656286 -17.611400
0.000000 0.000000 0.000000 0.000000 0.000000 -0.000000 1.898450 89.138500 2.992820 90.821200 -7.102530 7.098640 15.735700 0.000005 -0.000001 89.572600 84.984800 -85.612000 8.984550 -0.406207 -0.000000 2.285650 -0.263777 7.918790 16.377300 -0.000001 -0.000001 2.438290 -5.231230 0.920144 6.456720 -0.000001 -0.000000 -9.100590 -7.477700 -1.603450 12.994200 -0.242716 4.980390 -86.185900 -10.462700 -69.844500 5.348090 -0.000007 -0.000001 -11.193500 -51.591900 -26.691800 24.328600 0.000019 0.000005 -2.189070 -1.982910 -48.067100 22.291600 -0.000001 0.000005 28.767400 5.259790 1.173100 12.994500 -0.242716 -4.980390 87.649800 8.789940 -74.966400 -5.348130 -0.000001 -0.000004 -57.046300 10.646300 1.116230 -24.328900 0.000322 -0.000009 -1.781960 -4.441510 -21.870800 -22.291500 -0.000108 -0.000004 17.174200 5.369230 -1.965240 -2.192480 -6.469440 -0.000000 -178.050000 -14.550200 -3.475180 39.081100 -0.000007 -0.000012 -0.089697 0.120920 36.568100 40.985400 -0.000006 -0.000013 2.411030 5.020710 -76.219500 11.754300 -0.000000 0.000003 -0.000049 -0.000556 -16.599200 -2.192510 6.469440 -0.000001 173.004000 14.067300 174.486000 -39.081100 -0.002282 -0.040193 0.029930 -0.032911 38.997300 -40.985400 0.000008 0.000006 5.052560 9.055990 -75.694600 -11.754300 -0.000006 -0.000006 -0.364667 -0.452194 -17.498600
0.000000 0.000000 0.000000 0.000000 0.000000 -0.000000 2.159200 88.979000 2.720980 90.014900 -6.666950 7.258860 15.735700 0.000005 -0.000001 87.933400 84.741200 -83.909500 8.984550 -0.406207 -0.000000 2.776950 -0.553687 8.052890 16.377300 -0.000001 -0.000001 1.808950 -4.417650 -1.477320 6.456720 -0.000001 -0.000000 -9.743430 -8.582050 0.863642 12.994200 -0.242716 4.980390 -83.451700 -15.145200 -66.288100 5.348090 -0.000007 -0.000001 -12.053700 -61.022700 -37.457700 24.328600 0.000019 0.000005 5.156060 3.057990 -59.329800 22.291600 -0.000001 0.000005 34.041700 5.285280 0.511954 12.994500 -0.242716 -4.980390 87.795800 8.309630 -75.087200 -5.348130 -0.000001 -0.000004 -57.284100 8.041270 1.545260 -24.328900 0.000322 -0.000009 -1.215600 -3.144630 -21.130300 -22.291500 -0.000108 -0.000004 18.679500 5.353650 -1.488770 -2.192480 -6.469440 -0.000000 -177.746000 -13.336100 -4.234830 39.081100 -0.000007 -0.000012 -0.169092 0.217335 37.884300 40.985400 -0.000006 -0.000013 2.381370 3.863860 -76.601300 11.754300 -0.000000 0.000003 -0.000117 -0.001174 -16.622500 -2.192510 6.469440 -0.000001 173.292000 15.462300 174.502000 -39.081100 -0.002282 -0.040193 0.028104 -0.030275 39.349400 -40.985400 0.000008 0.000006 5.136650 10.062900 -75.715700 -11.754300 -0.000006 -0.000006 -0.547351 -0.671965 -17.338400
